PathFileType	4	(X/Y/Z)	Walk2.trc
DataRate	CameraRate	NumFrames	NumMarkers	Units	OrigDataRate	OrigDataStartFrame	OrigNumFrames
200.000000	200.000000	4	68	mm	200.000000	528	862
Frame#	Times		LFHD		LowerBodyModelVer		RCAR		RWRU		LElbow		LTH2		RACR1		RUA1		RASI		RFA1		LACR1		LTH4		LTB1		LLFC		RTH2		LMT5		LUA1		LTB4		LTB3		LTB2		LToe		LMT1		RTH4		LASI		PELOrigin		LLMAL		RBHD		STRN		RLFC		CLAV		RTH3		LFA1		LWRU		RBack		LPSI		RMT1		RMT5		LCAR		RTH1		RTB2		RCAL		LTH1		C7		RLMAL		RFHD		LBHD		RToe		RPSI		LHJC		MidPelvis		OPelvis		RHJC		SACR		XPelvis		YPelvis		ZPelvis		LWRR		RTB1		RTB3		RTB4		RMMAL		RWRR		RElbow		LTH3		LMMAL		T10		LCAL		LElbowM
			X1	Y1	Z1	X2	Y2	Z2	X3	Y3	Z3	X4	Y4	Z4	X5	Y5	Z5	X6	Y6	Z6	X7	Y7	Z7	X8	Y8	Z8	X9	Y9	Z9	X10	Y10	Z10	X11	Y11	Z11	X12	Y12	Z12	X13	Y13	Z13	X14	Y14	Z14	X15	Y15	Z15	X16	Y16	Z16	X17	Y17	Z17	X18	Y18	Z18	X19	Y19	Z19	X20	Y20	Z20	X21	Y21	Z21	X22	Y22	Z22	X23	Y23	Z23	X24	Y24	Z24	X25	Y25	Z25	X26	Y26	Z26	X27	Y27	Z27	X28	Y28	Z28	X29	Y29	Z29	X30	Y30	Z30	X31	Y31	Z31	X32	Y32	Z32	X33	Y33	Z33	X34	Y34	Z34	X35	Y35	Z35	X36	Y36	Z36	X37	Y37	Z37	X38	Y38	Z38	X39	Y39	Z39	X40	Y40	Z40	X41	Y41	Z41	X42	Y42	Z42	X43	Y43	Z43	X44	Y44	Z44	X45	Y45	Z45	X46	Y46	Z46	X47	Y47	Z47	X48	Y48	Z48	X49	Y49	Z49	X50	Y50	Z50	X51	Y51	Z51	X52	Y52	Z52	X53	Y53	Z53	X54	Y54	Z54	X55	Y55	Z55	X56	Y56	Z56	X57	Y57	Z57	X58	Y58	Z58	X59	Y59	Z59	X60	Y60	Z60	X61	Y61	Z61	X62	Y62	Z62	X63	Y63	Z63	X64	Y64	Z64	X65	Y65	Z65	X66	Y66	Z66	X67	Y67	Z67	X68	Y68	Z68

528	2.64	-482.14	1556.8	-5.7458	9	2014	4	-497.19	795.35	385.58	-549.52	838.12	398.12	-725.76	1085.6	-260.2	-469.45	655.53	-164.53	-611.34	1354.4	211.53	-626.98	1211.5	301.95	-549.31	932.15	205.95	-559.44	943.78	366.02	-603.05	1354.4	-143.15	-516.57	630.97	-194.69	-412.21	349.02	-43.178	-483	485.16	-142.34	-611.89	602.23	187.46	-281.74	53.733	-120.83	-645.89	1216.2	-225.97	-401.98	264.45	-51.139	-384.19	180.66	-56.484	-407.41	268.54	-112.47	-231.02	90.866	-42.171	-266.14	77.295	-39.881	-667.83	615.11	208.71	-515.38	950.72	-146.72	-532.35	941.44	29.613	-404.31	75.136	-117.13	-647.05	1553.8	110.3	-472.85	1199.4	52.845	-710.32	440.74	169.64	-531.96	1318.9	39.784	-688.67	531.82	186.48	-707.94	957.02	-306.06	-767.18	853.49	-338.4	-749.15	1290.5	135.84	-757.22	970.18	-95.94	-741.71	30.318	51.451	-752.28	22.07	142.29	-746.6	797.24	-346.19	-635.77	689.4	225.89	-753.09	255.57	148.33	-927.03	42.722	95.21	-539.65	708.8	-220.93	-692.42	1397.8	49.106	-866.66	72.146	137.72	-490.39	1563.7	89.023	-635.25	1543.9	-25.081	-695.09	28.119	59.548	-784.65	968.32	35.164	-613.4	843.66	-104.68	-651.64	955.34	-0.38773	-532.35	941.44	29.613	-636.47	831.04	135.13	-770.94	969.25	-30.388	-453.12	932.99	36.791	-524.33	1020.9	34.567	-540	937.25	109.14	-710.96	833.02	-293.48	-697.2	319.76	86.348	-795.52	163.71	64.209	-746.36	241.73	75.279	-848.47	79.679	52.288	-510.04	848.77	336.66	-652.77	1050.9	350.68	-491.36	551.77	-163.8	-393.49	84.029	-33.227	-747.33	1069.5	3.4214	-445.57	22.305	-71.953	-724	1041.7	-160.3
529	2.645	-477.5	1556.3	-7.2164	9	2014	4	-493.14	795.51	385.04	-545.55	838.17	397.34	-721.3	1084.5	-261.08	-462.72	655.89	-163.26	-606.81	1354.2	210.03	-622.81	1211.5	300.73	-544.43	931.5	205.37	-555.44	943.84	365.21	-598.05	1353.3	-144.69	-509.37	630.68	-193.68	-407.89	347.74	-41.995	-476.5	484.82	-141.38	-607.69	601.6	187.43	-279.8	51.201	-118.78	-641.12	1215	-227.19	-398.47	263.09	-49.818	-381.41	179.15	-54.927	-403.53	267.16	-111.18	-229	86.863	-39.319	-264.5	74.084	-37.507	-663.59	614.57	208.64	-510.01	949.66	-147.06	-527.22	940.58	29.154	-402.18	74.043	-115.79	-642.46	1553.1	108.75	-467.96	1198.7	51.651	-706.52	440.32	169.66	-527.11	1318.2	38.359	-684.6	531.31	186.41	-704.18	955.78	-306.78	-764.01	852.49	-338.77	-744.49	1290	134.24	-752.02	969.35	-96.838	-741.61	30.4	51.567	-752.29	22.034	142.31	-743.79	796.1	-346.46	-631.35	688.85	225.65	-750.85	255.57	148.45	-926.75	44.243	95.365	-533.18	708.1	-220.46	-687.72	1397.2	47.314	-866.14	73.07	137.96	-485.8	1563.2	87.556	-630.6	1543.3	-26.641	-695.02	28.061	59.573	-779.57	967.63	34.31	-608.1	842.77	-105.07	-646.51	954.54	-1.0549	-527.22	940.58	29.154	-631.5	830.42	134.58	-765.8	968.49	-31.264	-448	932.1	36.454	-519.16	1020	34.036	-534.98	936.48	108.67	-707.83	831.77	-293.9	-694.4	319.14	86.485	-794.16	164.07	64.399	-744.28	241.6	75.442	-847.87	80.572	52.507	-505.84	848.9	336.11	-648.74	1051	349.6	-483.5	551.9	-162.18	-391.83	82.486	-31.777	-742.35	1068.7	2.4858	-444.43	22.154	-71.097	-719.37	1040.7	-161.09
530	2.65	-472.84	1556	-8.7108	9	2014	4	-489.22	795.66	384.46	-541.69	838.2	396.52	-716.77	1083.4	-261.98	-455.91	656.25	-161.94	-602.27	1354	208.52	-618.68	1211.5	299.47	-539.49	930.85	204.78	-551.53	943.9	364.37	-593.02	1352.2	-146.27	-502.11	630.44	-192.61	-403.69	346.5	-40.796	-470.14	484.51	-140.43	-603.42	601.01	187.42	-278.03	48.669	-116.87	-636.3	1213.7	-228.43	-395.06	261.76	-48.521	-378.74	177.68	-53.43	-399.7	265.84	-109.92	-227.12	82.685	-36.538	-263.02	70.786	-35.223	-659.27	614.07	208.57	-504.64	948.63	-147.44	-522.07	939.74	28.67	-400.2	73.035	-114.55	-637.87	1552.5	107.15	-463.05	1198.1	50.414	-702.63	439.94	169.7	-522.24	1317.6	36.895	-680.45	530.82	186.35	-700.32	954.52	-307.52	-760.73	851.47	-339.15	-739.82	1289.6	132.6	-746.81	968.56	-97.742	-741.5	30.493	51.694	-752.3	21.99	142.32	-740.86	794.93	-346.74	-626.87	688.34	225.42	-748.55	255.64	148.61	-926.41	45.897	95.541	-526.57	707.49	-219.9	-683.02	1396.6	45.47	-865.56	74.077	138.21	-481.2	1562.8	86.063	-625.93	1542.8	-28.236	-694.96	28.006	59.593	-774.47	966.96	33.46	-602.81	841.9	-105.49	-641.35	953.75	-1.7352	-522.07	939.74	28.67	-626.51	829.81	134.02	-760.64	967.76	-32.141	-442.87	931.22	36.077	-513.97	1019.2	33.482	-529.94	935.73	108.18	-704.58	830.5	-294.32	-691.5	318.56	86.651	-792.71	164.5	64.618	-742.11	241.53	75.635	-847.21	81.551	52.755	-501.76	849.02	335.52	-644.79	1051	348.47	-475.66	552.08	-160.47	-390.33	80.981	-30.424	-737.39	1068.1	1.5573	-443.47	22.144	-70.361	-714.69	1039.7	-161.92
531	2.655	-468.17	1555.6	-10.227	9	2014	4	-485.45	795.8	383.84	-537.96	838.24	395.65	-712.17	1082.3	-262.92	-449.04	656.62	-160.59	-597.72	1353.9	206.98	-614.58	1211.5	298.16	-534.52	930.23	204.18	-547.71	943.97	363.51	-587.97	1351	-147.88	-494.81	630.29	-191.49	-399.58	345.32	-39.587	-463.92	484.25	-139.51	-599.08	600.46	187.43	-276.39	46.176	-115.12	-631.43	1212.5	-229.7	-391.73	260.51	-47.254	-376.16	176.27	-52.005	-395.9	264.62	-108.68	-225.34	78.384	-33.858	-261.66	67.446	-33.051	-654.89	613.6	208.51	-499.29	947.64	-147.87	-516.9	938.93	28.157	-398.31	72.133	-113.41	-633.27	1552	105.53	-458.11	1197.4	49.135	-698.64	439.59	169.75	-517.36	1317.1	35.396	-676.21	530.38	186.29	-696.36	953.24	-308.26	-757.32	850.43	-339.55	-735.15	1289.3	130.93	-741.6	967.8	-98.651	-741.38	30.595	51.831	-752.32	21.936	142.34	-737.79	793.76	-347.02	-622.33	687.88	225.2	-746.16	255.76	148.8	-926.01	47.696	95.738	-519.83	706.99	-219.28	-678.3	1396.1	43.578	-864.91	75.175	138.5	-476.59	1562.4	84.547	-621.24	1542.3	-29.865	-694.9	27.956	59.606	-769.35	966.31	32.616	-597.53	841.06	-105.94	-636.19	952.99	-2.4303	-516.9	938.93	28.157	-621.48	829.22	133.46	-755.48	967.05	-33.017	-437.72	930.36	35.655	-508.76	1018.4	32.901	-524.86	935	107.66	-701.2	829.22	-294.75	-688.49	318.02	86.852	-791.18	165.01	64.871	-739.83	241.51	75.861	-846.47	82.622	53.034	-497.78	849.15	334.9	-640.92	1051.1	347.3	-467.91	552.3	-158.71	-388.92	79.545	-29.178	-732.45	1067.5	0.63963	-442.64	22.275	-69.744	-709.96	1038.7	-162.77
